<mxfile host="app.diagrams.net" modified="2023-07-17T13:42:22.726Z" agent="Mozilla/5.0 (Windows NT 10.0; Win64; x64) AppleWebKit/537.36 (KHTML, like Gecko) Chrome/114.0.0.0 Safari/537.36" etag="SQHg7b497hvLHj4Ij3VS" version="21.6.2" type="device">
  <diagram name="Página-1" id="8x-Y7SuYn9xPXqVg3qQM">
    <mxGraphModel dx="954" dy="620" grid="1" gridSize="10" guides="1" tooltips="1" connect="1" arrows="1" fold="1" page="1" pageScale="1" pageWidth="827" pageHeight="1169" background="#CCFFFF" math="0" shadow="1">
      <root>
        <mxCell id="0" />
        <mxCell id="1" parent="0" />
        <mxCell id="4_SIxITdrQTBEXoqP8BQ-3" value="&lt;font style=&quot;font-size: 15px;&quot;&gt;APROVECHA LOS DESCUENTOS QUE TENEMOS PARA VOS!!!&lt;/font&gt;" style="text;html=1;strokeColor=none;fillColor=none;align=center;verticalAlign=middle;whiteSpace=wrap;rounded=0;fontStyle=1" parent="1" vertex="1">
          <mxGeometry x="230" y="40" width="270" height="30" as="geometry" />
        </mxCell>
        <mxCell id="4_SIxITdrQTBEXoqP8BQ-4" value="" style="shape=actor;whiteSpace=wrap;html=1;fillColor=#e6d0de;gradientColor=#d5739d;strokeColor=default;" parent="1" vertex="1">
          <mxGeometry x="590" y="25" width="30" height="40" as="geometry" />
        </mxCell>
        <mxCell id="4_SIxITdrQTBEXoqP8BQ-6" value="Cart" style="sketch=0;outlineConnect=0;gradientColor=#d5739d;strokeColor=none;fillColor=#e6d0de;dashed=0;verticalLabelPosition=bottom;verticalAlign=top;align=center;aspect=fixed;shape=mxgraph.aws4.resourceIcon;resIcon=mxgraph.aws4.cart;html=1;fontColor=none;noLabel=1;" parent="1" vertex="1">
          <mxGeometry x="650" y="15" width="60" height="60" as="geometry" />
        </mxCell>
        <mxCell id="4_SIxITdrQTBEXoqP8BQ-9" value="&lt;font style=&quot;font-size: 15px;&quot;&gt;Registrarse&lt;/font&gt;" style="text;html=1;strokeColor=none;fillColor=#e6d0de;align=center;verticalAlign=middle;whiteSpace=wrap;rounded=0;gradientColor=#d5739d;fontStyle=0" parent="1" vertex="1">
          <mxGeometry x="740" y="30" width="80" height="30" as="geometry" />
        </mxCell>
        <mxCell id="4_SIxITdrQTBEXoqP8BQ-12" value="" style="endArrow=none;html=1;rounded=0;" parent="1" edge="1">
          <mxGeometry width="50" height="50" relative="1" as="geometry">
            <mxPoint y="100" as="sourcePoint" />
            <mxPoint x="820" y="100" as="targetPoint" />
          </mxGeometry>
        </mxCell>
        <mxCell id="4_SIxITdrQTBEXoqP8BQ-13" value="" style="endArrow=none;html=1;rounded=0;" parent="1" edge="1">
          <mxGeometry width="50" height="50" relative="1" as="geometry">
            <mxPoint y="150" as="sourcePoint" />
            <mxPoint x="820" y="150" as="targetPoint" />
          </mxGeometry>
        </mxCell>
        <mxCell id="4_SIxITdrQTBEXoqP8BQ-14" value="&lt;font style=&quot;font-size: 20px;&quot;&gt;TIENDA&lt;/font&gt;" style="text;html=1;strokeColor=default;fillColor=#dae8fc;align=center;verticalAlign=middle;whiteSpace=wrap;rounded=0;fontStyle=1" parent="1" vertex="1">
          <mxGeometry y="100" width="170" height="50" as="geometry" />
        </mxCell>
        <mxCell id="4_SIxITdrQTBEXoqP8BQ-15" value="&lt;font style=&quot;font-size: 20px;&quot;&gt;SOBRE NOSOTROS&lt;/font&gt;" style="text;html=1;strokeColor=default;fillColor=#dae8fc;align=center;verticalAlign=middle;whiteSpace=wrap;rounded=0;fontStyle=1" parent="1" vertex="1">
          <mxGeometry x="170" y="100" width="280" height="50" as="geometry" />
        </mxCell>
        <mxCell id="4_SIxITdrQTBEXoqP8BQ-16" value="&lt;font style=&quot;font-size: 20px;&quot;&gt;SOPORTE&lt;/font&gt;" style="text;html=1;strokeColor=default;fillColor=#dae8fc;align=center;verticalAlign=middle;whiteSpace=wrap;rounded=0;fontStyle=1" parent="1" vertex="1">
          <mxGeometry x="450" y="100" width="190" height="50" as="geometry" />
        </mxCell>
        <mxCell id="4_SIxITdrQTBEXoqP8BQ-17" value="&lt;font style=&quot;font-size: 20px;&quot;&gt;NOTICIAS&lt;/font&gt;" style="text;html=1;strokeColor=default;fillColor=#dae8fc;align=center;verticalAlign=middle;whiteSpace=wrap;rounded=0;fontStyle=1" parent="1" vertex="1">
          <mxGeometry x="640" y="100" width="180" height="50" as="geometry" />
        </mxCell>
        <mxCell id="4_SIxITdrQTBEXoqP8BQ-19" value="" style="endArrow=none;html=1;rounded=0;" parent="1" edge="1">
          <mxGeometry width="50" height="50" relative="1" as="geometry">
            <mxPoint x="170" y="150" as="sourcePoint" />
            <mxPoint x="170" y="100" as="targetPoint" />
          </mxGeometry>
        </mxCell>
        <mxCell id="4_SIxITdrQTBEXoqP8BQ-20" value="" style="endArrow=none;html=1;rounded=0;" parent="1" edge="1">
          <mxGeometry width="50" height="50" relative="1" as="geometry">
            <mxPoint x="450" y="150" as="sourcePoint" />
            <mxPoint x="450" y="100" as="targetPoint" />
          </mxGeometry>
        </mxCell>
        <mxCell id="4_SIxITdrQTBEXoqP8BQ-21" value="" style="endArrow=none;html=1;rounded=0;" parent="1" edge="1">
          <mxGeometry width="50" height="50" relative="1" as="geometry">
            <mxPoint x="640" y="150" as="sourcePoint" />
            <mxPoint x="640" y="100" as="targetPoint" />
          </mxGeometry>
        </mxCell>
        <mxCell id="4_SIxITdrQTBEXoqP8BQ-24" value="" style="group;fillColor=default;gradientColor=#ffd966;strokeColor=#d6b656;" parent="1" vertex="1" connectable="0">
          <mxGeometry x="30" y="10" width="140" height="70" as="geometry" />
        </mxCell>
        <mxCell id="4_SIxITdrQTBEXoqP8BQ-2" value="" style="rounded=0;whiteSpace=wrap;html=1;fillColor=none;" parent="4_SIxITdrQTBEXoqP8BQ-24" vertex="1">
          <mxGeometry width="140" height="70" as="geometry" />
        </mxCell>
        <mxCell id="4_SIxITdrQTBEXoqP8BQ-22" value="" style="endArrow=none;html=1;rounded=0;exitX=0;exitY=0;exitDx=0;exitDy=0;entryX=1;entryY=1;entryDx=0;entryDy=0;" parent="4_SIxITdrQTBEXoqP8BQ-24" source="4_SIxITdrQTBEXoqP8BQ-2" target="4_SIxITdrQTBEXoqP8BQ-2" edge="1">
          <mxGeometry width="50" height="50" relative="1" as="geometry">
            <mxPoint x="360" y="50" as="sourcePoint" />
            <mxPoint x="410" as="targetPoint" />
          </mxGeometry>
        </mxCell>
        <mxCell id="4_SIxITdrQTBEXoqP8BQ-23" value="" style="endArrow=none;html=1;rounded=0;exitX=0;exitY=1;exitDx=0;exitDy=0;entryX=1;entryY=0;entryDx=0;entryDy=0;" parent="4_SIxITdrQTBEXoqP8BQ-24" source="4_SIxITdrQTBEXoqP8BQ-2" target="4_SIxITdrQTBEXoqP8BQ-2" edge="1">
          <mxGeometry width="50" height="50" relative="1" as="geometry">
            <mxPoint x="360" y="50" as="sourcePoint" />
            <mxPoint x="410" as="targetPoint" />
          </mxGeometry>
        </mxCell>
        <mxCell id="4_SIxITdrQTBEXoqP8BQ-38" value="" style="endArrow=none;html=1;rounded=0;entryX=0;entryY=1;entryDx=0;entryDy=0;" parent="1" target="4_SIxITdrQTBEXoqP8BQ-14" edge="1">
          <mxGeometry width="50" height="50" relative="1" as="geometry">
            <mxPoint y="930" as="sourcePoint" />
            <mxPoint y="360" as="targetPoint" />
          </mxGeometry>
        </mxCell>
        <mxCell id="4_SIxITdrQTBEXoqP8BQ-71" value="" style="rounded=0;whiteSpace=wrap;html=1;fillColor=#fff2cc;strokeColor=default;" parent="1" vertex="1">
          <mxGeometry y="999" width="820" height="161" as="geometry" />
        </mxCell>
        <mxCell id="4_SIxITdrQTBEXoqP8BQ-75" value="" style="group;shadow=0;fillColor=#f8cecc;strokeColor=#b85450;" parent="1" vertex="1" connectable="0">
          <mxGeometry x="10" y="1010" width="140" height="70" as="geometry" />
        </mxCell>
        <mxCell id="4_SIxITdrQTBEXoqP8BQ-76" value="" style="rounded=0;whiteSpace=wrap;html=1;fillColor=none;" parent="4_SIxITdrQTBEXoqP8BQ-75" vertex="1">
          <mxGeometry width="140" height="70" as="geometry" />
        </mxCell>
        <mxCell id="4_SIxITdrQTBEXoqP8BQ-77" value="" style="endArrow=none;html=1;rounded=0;exitX=0;exitY=0;exitDx=0;exitDy=0;entryX=1;entryY=1;entryDx=0;entryDy=0;" parent="4_SIxITdrQTBEXoqP8BQ-75" source="4_SIxITdrQTBEXoqP8BQ-76" target="4_SIxITdrQTBEXoqP8BQ-76" edge="1">
          <mxGeometry width="50" height="50" relative="1" as="geometry">
            <mxPoint x="360" y="50" as="sourcePoint" />
            <mxPoint x="410" as="targetPoint" />
          </mxGeometry>
        </mxCell>
        <mxCell id="4_SIxITdrQTBEXoqP8BQ-78" value="" style="endArrow=none;html=1;rounded=0;exitX=0;exitY=1;exitDx=0;exitDy=0;entryX=1;entryY=0;entryDx=0;entryDy=0;" parent="4_SIxITdrQTBEXoqP8BQ-75" source="4_SIxITdrQTBEXoqP8BQ-76" target="4_SIxITdrQTBEXoqP8BQ-76" edge="1">
          <mxGeometry width="50" height="50" relative="1" as="geometry">
            <mxPoint x="360" y="50" as="sourcePoint" />
            <mxPoint x="410" as="targetPoint" />
          </mxGeometry>
        </mxCell>
        <mxCell id="4_SIxITdrQTBEXoqP8BQ-79" value="&lt;ul style=&quot;font-size: 15px;&quot;&gt;&lt;li&gt;&lt;b&gt;Correo&lt;/b&gt;&lt;/li&gt;&lt;li&gt;&lt;b&gt;Teléfono&lt;/b&gt;&lt;/li&gt;&lt;li&gt;&lt;b&gt;Ubicación&lt;/b&gt;&lt;/li&gt;&lt;/ul&gt;" style="text;html=1;align=left;verticalAlign=middle;whiteSpace=wrap;rounded=0;" parent="1" vertex="1">
          <mxGeometry x="5" y="1110" width="90" height="30" as="geometry" />
        </mxCell>
        <mxCell id="4_SIxITdrQTBEXoqP8BQ-80" value="&lt;font style=&quot;font-size: 14px;&quot;&gt;&lt;b&gt;Descarga la app de Exodus&lt;/b&gt;&lt;/font&gt;" style="text;html=1;strokeColor=#d6b656;fillColor=#fff2cc;align=center;verticalAlign=middle;whiteSpace=wrap;rounded=0;fontSize=12;fontFamily=Helvetica;gradientColor=#ffd966;shadow=1;" parent="1" vertex="1">
          <mxGeometry x="307" y="1005" width="106" height="40" as="geometry" />
        </mxCell>
        <mxCell id="4_SIxITdrQTBEXoqP8BQ-98" value="&lt;b&gt;Logo Play store&lt;/b&gt;" style="rounded=0;whiteSpace=wrap;html=1;fontFamily=Helvetica;fontSize=12;fillColor=#fff2cc;strokeColor=#d6b656;gradientColor=#ffd966;shadow=1;" parent="1" vertex="1">
          <mxGeometry x="300" y="1060" width="120" height="20" as="geometry" />
        </mxCell>
        <mxCell id="4_SIxITdrQTBEXoqP8BQ-99" value="&lt;b&gt;Logo Apple store&lt;/b&gt;" style="rounded=0;whiteSpace=wrap;html=1;fontFamily=Helvetica;fontSize=12;fillColor=#fff2cc;strokeColor=#d6b656;gradientColor=#ffd966;shadow=1;" parent="1" vertex="1">
          <mxGeometry x="300" y="1095" width="120" height="20" as="geometry" />
        </mxCell>
        <mxCell id="4_SIxITdrQTBEXoqP8BQ-100" value="&lt;b&gt;ICONOS DE FACEBOOK, TWITTER, INSTAGRAM&lt;/b&gt;" style="rounded=0;whiteSpace=wrap;html=1;fontFamily=Helvetica;fontSize=12;fillColor=#fff2cc;gradientColor=#ffd966;strokeColor=#d6b656;shadow=1;" parent="1" vertex="1">
          <mxGeometry x="612.5" y="1007.5" width="170" height="42.5" as="geometry" />
        </mxCell>
        <mxCell id="4_SIxITdrQTBEXoqP8BQ-101" value="&lt;div style=&quot;&quot;&gt;&lt;span style=&quot;background-color: initial;&quot;&gt;&lt;font size=&quot;1&quot; style=&quot;&quot;&gt;&lt;b style=&quot;font-size: 13px;&quot;&gt;La comunidad ha contribuido mas de $240.000.000 a organizaciones benéficas desde 2010. Marcando una diferencia en distintas causas del mundo.&lt;/b&gt;&lt;/font&gt;&lt;/span&gt;&lt;/div&gt;" style="rounded=0;whiteSpace=wrap;html=1;fontFamily=Helvetica;fontSize=12;fillColor=#fff2cc;gradientColor=#ffd966;align=left;strokeColor=#d6b656;shadow=1;" parent="1" vertex="1">
          <mxGeometry x="590" y="1060" width="215" height="90" as="geometry" />
        </mxCell>
        <mxCell id="4_SIxITdrQTBEXoqP8BQ-109" value="" style="endArrow=none;html=1;rounded=0;fontFamily=Helvetica;fontSize=12;fontColor=default;exitX=0;exitY=0;exitDx=0;exitDy=0;" parent="1" source="4_SIxITdrQTBEXoqP8BQ-71" edge="1">
          <mxGeometry width="50" height="50" relative="1" as="geometry">
            <mxPoint x="390" y="830" as="sourcePoint" />
            <mxPoint y="930" as="targetPoint" />
          </mxGeometry>
        </mxCell>
        <mxCell id="4_SIxITdrQTBEXoqP8BQ-110" value="" style="endArrow=none;html=1;rounded=0;fontFamily=Helvetica;fontSize=12;fontColor=default;exitX=1;exitY=0;exitDx=0;exitDy=0;entryX=1;entryY=1;entryDx=0;entryDy=0;" parent="1" source="4_SIxITdrQTBEXoqP8BQ-71" edge="1" target="4_SIxITdrQTBEXoqP8BQ-17">
          <mxGeometry width="50" height="50" relative="1" as="geometry">
            <mxPoint x="390" y="830" as="sourcePoint" />
            <mxPoint x="820" y="360" as="targetPoint" />
          </mxGeometry>
        </mxCell>
        <mxCell id="4_SIxITdrQTBEXoqP8BQ-123" value="&lt;font style=&quot;&quot;&gt;&lt;b style=&quot;&quot;&gt;&lt;font style=&quot;font-size: 13px;&quot;&gt;Copyright ⓒ 2023 Exodus Gaming&lt;/font&gt;&lt;/b&gt;&lt;br&gt;&lt;/font&gt;" style="text;html=1;strokeColor=#d6b656;fillColor=#fff2cc;align=center;verticalAlign=middle;whiteSpace=wrap;rounded=0;fontSize=12;fontFamily=Helvetica;gradientColor=#ffd966;" parent="1" vertex="1">
          <mxGeometry x="243.12" y="1130" width="243.75" height="20" as="geometry" />
        </mxCell>
        <mxCell id="H6gRXPuSvwAACEeJqlda-24" value="" style="group" vertex="1" connectable="0" parent="1">
          <mxGeometry x="213.74500000000006" y="200" width="392.50499999999994" height="570" as="geometry" />
        </mxCell>
        <mxCell id="H6gRXPuSvwAACEeJqlda-3" value="" style="rounded=0;whiteSpace=wrap;html=1;fillColor=#e6d0de;gradientColor=#d5739d;strokeColor=default;shadow=1;" vertex="1" parent="H6gRXPuSvwAACEeJqlda-24">
          <mxGeometry x="0.004999999999938609" width="392.5" height="570" as="geometry" />
        </mxCell>
        <mxCell id="H6gRXPuSvwAACEeJqlda-4" value="&lt;b&gt;Google&lt;/b&gt;" style="rounded=0;whiteSpace=wrap;html=1;fillColor=#f8cecc;gradientColor=#ea6b66;strokeColor=default;shadow=1;" vertex="1" parent="H6gRXPuSvwAACEeJqlda-24">
          <mxGeometry x="50.00499999999994" y="30" width="310" height="30" as="geometry" />
        </mxCell>
        <mxCell id="H6gRXPuSvwAACEeJqlda-5" value="&lt;b&gt;Facebook&lt;/b&gt;" style="rounded=0;whiteSpace=wrap;html=1;fillColor=#f8cecc;gradientColor=#ea6b66;strokeColor=default;shadow=1;" vertex="1" parent="H6gRXPuSvwAACEeJqlda-24">
          <mxGeometry x="51.25499999999994" y="70" width="308.75" height="30" as="geometry" />
        </mxCell>
        <mxCell id="H6gRXPuSvwAACEeJqlda-6" value="&lt;b&gt;Apple&lt;/b&gt;" style="rounded=0;whiteSpace=wrap;html=1;fillColor=#f8cecc;gradientColor=#ea6b66;strokeColor=default;shadow=1;" vertex="1" parent="H6gRXPuSvwAACEeJqlda-24">
          <mxGeometry x="50.00499999999994" y="110" width="310" height="30" as="geometry" />
        </mxCell>
        <mxCell id="H6gRXPuSvwAACEeJqlda-7" value="Steam" style="rounded=0;whiteSpace=wrap;html=1;fillColor=#f8cecc;gradientColor=#ea6b66;strokeColor=default;shadow=1;" vertex="1" parent="H6gRXPuSvwAACEeJqlda-24">
          <mxGeometry x="50.00499999999994" y="150" width="80" height="30" as="geometry" />
        </mxCell>
        <mxCell id="H6gRXPuSvwAACEeJqlda-9" value="Discord" style="rounded=0;whiteSpace=wrap;html=1;fillColor=#f8cecc;gradientColor=#ea6b66;strokeColor=default;shadow=1;" vertex="1" parent="H6gRXPuSvwAACEeJqlda-24">
          <mxGeometry x="130.00499999999994" y="150" width="80" height="30" as="geometry" />
        </mxCell>
        <mxCell id="H6gRXPuSvwAACEeJqlda-10" value="Twitter" style="rounded=0;whiteSpace=wrap;html=1;fillColor=#f8cecc;gradientColor=#ea6b66;strokeColor=default;shadow=1;" vertex="1" parent="H6gRXPuSvwAACEeJqlda-24">
          <mxGeometry x="290.00499999999994" y="150" width="70" height="30" as="geometry" />
        </mxCell>
        <mxCell id="H6gRXPuSvwAACEeJqlda-11" value="Twitch" style="rounded=0;whiteSpace=wrap;html=1;fillColor=#f8cecc;gradientColor=#ea6b66;strokeColor=default;shadow=1;" vertex="1" parent="H6gRXPuSvwAACEeJqlda-24">
          <mxGeometry x="210.00499999999994" y="150" width="80" height="30" as="geometry" />
        </mxCell>
        <mxCell id="H6gRXPuSvwAACEeJqlda-13" value="&lt;b&gt;&lt;font style=&quot;font-size: 15px;&quot;&gt;Email&lt;/font&gt;&lt;/b&gt;" style="rounded=0;whiteSpace=wrap;html=1;align=center;fillColor=#dae8fc;gradientColor=#7ea6e0;strokeColor=default;shadow=1;" vertex="1" parent="H6gRXPuSvwAACEeJqlda-24">
          <mxGeometry x="51.25499999999994" y="281.25" width="310" height="52.5" as="geometry" />
        </mxCell>
        <mxCell id="H6gRXPuSvwAACEeJqlda-16" value="" style="endArrow=none;html=1;rounded=0;exitX=-0.01;exitY=0.4;exitDx=0;exitDy=0;exitPerimeter=0;" edge="1" parent="H6gRXPuSvwAACEeJqlda-24">
          <mxGeometry width="50" height="50" relative="1" as="geometry">
            <mxPoint y="227.25" as="sourcePoint" />
            <mxPoint x="155.00499999999994" y="227" as="targetPoint" />
          </mxGeometry>
        </mxCell>
        <mxCell id="H6gRXPuSvwAACEeJqlda-17" value="" style="ellipse;whiteSpace=wrap;html=1;aspect=fixed;fillColor=#f5f5f5;gradientColor=#b3b3b3;strokeColor=default;shadow=1;" vertex="1" parent="H6gRXPuSvwAACEeJqlda-24">
          <mxGeometry x="178.75499999999994" y="210" width="35" height="35" as="geometry" />
        </mxCell>
        <mxCell id="H6gRXPuSvwAACEeJqlda-18" value="" style="endArrow=none;html=1;rounded=0;exitX=-0.01;exitY=0.4;exitDx=0;exitDy=0;exitPerimeter=0;" edge="1" parent="H6gRXPuSvwAACEeJqlda-24">
          <mxGeometry width="50" height="50" relative="1" as="geometry">
            <mxPoint x="237.50000000000006" y="227.25" as="sourcePoint" />
            <mxPoint x="392.50499999999994" y="227" as="targetPoint" />
          </mxGeometry>
        </mxCell>
        <mxCell id="H6gRXPuSvwAACEeJqlda-19" value="&lt;b&gt;&lt;font style=&quot;font-size: 15px;&quot;&gt;Contraseña&lt;/font&gt;&lt;/b&gt;" style="rounded=0;whiteSpace=wrap;html=1;align=center;fillColor=#dae8fc;gradientColor=#7ea6e0;strokeColor=default;shadow=1;" vertex="1" parent="H6gRXPuSvwAACEeJqlda-24">
          <mxGeometry x="50.00499999999994" y="370" width="310" height="52.5" as="geometry" />
        </mxCell>
        <mxCell id="H6gRXPuSvwAACEeJqlda-20" value="&lt;b&gt;&lt;font style=&quot;font-size: 14px;&quot;&gt;Iniciar&amp;nbsp;&lt;/font&gt;&lt;/b&gt;&lt;span style=&quot;font-size: 14px;&quot;&gt;&lt;b&gt;sesión&lt;/b&gt;&lt;/span&gt;" style="rounded=0;whiteSpace=wrap;html=1;fillColor=#d5e8d4;gradientColor=#97d077;strokeColor=default;shadow=1;" vertex="1" parent="H6gRXPuSvwAACEeJqlda-24">
          <mxGeometry x="145.00499999999994" y="490" width="120" height="30" as="geometry" />
        </mxCell>
        <mxCell id="H6gRXPuSvwAACEeJqlda-21" value="&lt;b&gt;&lt;font color=&quot;#3333ff&quot; style=&quot;font-size: 13px;&quot;&gt;Mostrar contraseña&lt;/font&gt;&lt;/b&gt;" style="text;html=1;strokeColor=none;fillColor=none;align=center;verticalAlign=middle;whiteSpace=wrap;rounded=0;" vertex="1" parent="H6gRXPuSvwAACEeJqlda-24">
          <mxGeometry x="48.75499999999994" y="422.5" width="130" height="30" as="geometry" />
        </mxCell>
        <mxCell id="H6gRXPuSvwAACEeJqlda-23" value="&lt;font color=&quot;#3333ff&quot; style=&quot;font-size: 13px;&quot;&gt;&lt;b&gt;¿Has olvidado tu contraseña?&lt;/b&gt;&lt;/font&gt;" style="text;html=1;strokeColor=none;fillColor=none;align=center;verticalAlign=middle;whiteSpace=wrap;rounded=0;" vertex="1" parent="H6gRXPuSvwAACEeJqlda-24">
          <mxGeometry x="110.00499999999994" y="520" width="190" height="30" as="geometry" />
        </mxCell>
        <mxCell id="H6gRXPuSvwAACEeJqlda-25" value="&lt;b&gt;&lt;i&gt;&lt;font color=&quot;#3333ff&quot; style=&quot;font-size: 40px;&quot;&gt;Gracias por elegirnos&lt;br&gt;&lt;br&gt;Disfruta de tus compras&lt;br&gt;&lt;/font&gt;&lt;/i&gt;&lt;/b&gt;" style="text;html=1;strokeColor=none;fillColor=none;align=center;verticalAlign=middle;whiteSpace=wrap;rounded=0;" vertex="1" parent="1">
          <mxGeometry x="170" y="880" width="480" height="30" as="geometry" />
        </mxCell>
      </root>
    </mxGraphModel>
  </diagram>
</mxfile>
